<svg xmlns="http://www.w3.org/2000/svg" width="24" height="24" viewBox="0 0 24 24">
    <path fill="none" stroke="#383838" stroke-width="2" d="M11.05 2c1.082 0 1.818.097 2.303.307.257.111.397.26.432.466h0l.28 1.658c.61.162 1.22.413 1.8.738h0l1.388-.988c.154-.11.337-.17.53-.17.246 0 .477.098.652.273h0l1.293 1.293c.16.158.25.361.268.571.018.212-.04.43-.17.615h0l-.987 1.38c.307.543.553 1.137.724 1.75h0l1.674.284c.224.037.418.15.554.312.135.162.213.371.209.598h0v1.824c0 .227-.08.437-.218.599-.137.162-.33.276-.553.313h0l-1.676.28c-.155.577-.4 1.17-.722 1.75h0l.985 1.383c.131.184.187.402.17.613-.018.212-.11.417-.27.578h0l-1.29 1.29c-.175.174-.406.271-.652.271-.195 0-.38-.058-.54-.173h0l-1.378-.985c-.542.307-1.136.554-1.749.725h0l-.284 1.674c-.037.223-.151.416-.313.553-.163.138-.372.218-.6.218h0-1.825c-.227 0-.437-.08-.6-.218-.161-.137-.275-.33-.313-.553h0l-.279-1.673c-.61-.173-1.189-.412-1.707-.703h0l-1.4.996c-.154.111-.338.17-.53.17-.246 0-.477-.098-.652-.273h0L4.31 18.453c-.16-.158-.25-.36-.268-.57-.018-.213.039-.431.168-.613h0l.986-1.372c-.316-.548-.566-1.14-.735-1.743h0l-1.692-.288c-.223-.038-.416-.152-.552-.314-.138-.162-.218-.372-.218-.599h0v-1.821c0-.227.08-.437.218-.6.137-.162.33-.276.555-.313h0l1.656-.28c.169-.617.409-1.212.714-1.753h0L4.15 6.79c-.131-.184-.187-.402-.17-.613.018-.212.11-.417.27-.576h0l1.297-1.294c.172-.175.403-.27.65-.27.194 0 .38.06.536.172h0l1.373.988c.55-.316 1.141-.566 1.744-.735h0l.289-1.692c.037-.223.151-.416.313-.552.162-.138.372-.218.6-.218zM12 8.25h0c-1.034 0-1.972.42-2.65 1.1-.68.678-1.1 1.616-1.1 2.65 0 1.034.42 1.972 1.1 2.65.678.68 1.616 1.1 2.65 1.1 1.034 0 1.972-.42 2.65-1.1.68-.678 1.1-1.616 1.1-2.65 0-1.034-.42-1.972-1.1-2.65-.678-.68-1.616-1.1-2.65-1.1z"/>
</svg>
