<svg xmlns="http://www.w3.org/2000/svg" width="24" height="24" viewBox="0 0 24 24">
    <path fill="none" fill-rule="evenodd" stroke="#383838" stroke-linecap="round" stroke-linejoin="round" stroke-width="2" d="M4.268 20.294l.591-4.732A7.764 7.764 0 0 1 4 12.008a7.899 7.899 0 0 1 1.32-4.434 7.98 7.98 0 0 1 3.577-2.952 8.043 8.043 0 0 1 8.735 1.68 7.921 7.921 0 0 1 2.21 4.07 7.887 7.887 0 0 1-.446 4.602 7.95 7.95 0 0 1-2.948 3.576 8.03 8.03 0 0 1-4.446 1.341 8.065 8.065 0 0 1-3.17-.643l-4.564 1.046z"/>
</svg>
