<svg xmlns="http://www.w3.org/2000/svg" width="24" height="24" viewBox="0 0 24 24">
    <path fill="#383838" fill-rule="nonzero" stroke="#383838" stroke-linecap="round" stroke-linejoin="round" stroke-width=".25" d="M17.215 18.452L12 13.237l-5.216 5.215a.872.872 0 0 1-1.237 0 .872.872 0 0 1 0-1.237l5.215-5.216-5.215-5.214a.872.872 0 0 1 0-1.237.872.872 0 0 1 1.237 0l5.216 5.214 5.214-5.214a.872.872 0 0 1 1.237 0 .872.872 0 0 1 0 1.237L13.238 12l5.214 5.216a.872.872 0 0 1 0 1.237.872.872 0 0 1-1.237 0z"/>
</svg>
