<svg xmlns="http://www.w3.org/2000/svg" width="24" height="24" viewBox="0 0 24 24">
    <g fill="none" fill-rule="evenodd">
        <path fill="#F8CD46" d="M2.564 0h18.872c.892 0 1.215.093 1.54.267.327.174.583.43.757.756.174.326.267.65.267 1.54v18.873c0 .892-.093 1.215-.267 1.54-.174.327-.43.583-.756.757-.326.174-.65.267-1.54.267H2.563c-.892 0-1.215-.093-1.54-.267a1.817 1.817 0 0 1-.757-.756C.093 22.65 0 22.327 0 21.437V2.563c0-.892.093-1.215.267-1.54.174-.327.43-.583.756-.757C1.35.093 1.673 0 2.563 0z"/>
        <path fill="#403631" fill-rule="nonzero" d="M4 11.435c0 2.056 1.5 4.034 3.75 5.14-.167.396-.834 2.61-.834 2.769 0 .042.018.083.05.112.03.03.283.044.283.044.166 0 2.917-1.819 3.334-2.056.46.13.939.182 1.417.156 4.5 0 8-2.689 8-5.931 0-3.48-3.5-6.169-8-6.169-4.5.004-8 2.692-8 5.935z"/>
    </g>
</svg>
