<svg xmlns="http://www.w3.org/2000/svg" xmlns:xlink="http://www.w3.org/1999/xlink" width="24" height="24" viewBox="0 0 24 24">
    <defs>
        <path id="a" d="M.001 0H24v23.854H.001z"/>
    </defs>
    <g fill="none" fill-rule="evenodd">
        <path fill="#1877F2" d="M2.564 0h18.872c.892 0 1.215.093 1.54.267.327.174.583.43.757.756.174.326.267.65.267 1.54v18.873c0 .892-.093 1.215-.267 1.54-.174.327-.43.583-.756.757-.326.174-.65.267-1.54.267H2.563c-.892 0-1.215-.093-1.54-.267a1.817 1.817 0 0 1-.757-.756C.093 22.65 0 22.327 0 21.437V2.563c0-.892.093-1.215.267-1.54.174-.327.43-.583.756-.757C1.35.093 1.673 0 2.563 0z"/>
        <g>
            <mask id="b" fill="#fff">
                <use xlink:href="#a"/>
            </mask>
            <path fill="#1877F2" d="M24 12c0-6.627-5.373-12-12-12S0 5.373 0 12c0 5.99 4.388 10.954 10.125 11.854V15.47H7.078V12h3.047V9.356c0-3.007 1.792-4.668 4.533-4.668 1.312 0 2.686.234 2.686.234v2.953H15.83c-1.491 0-1.956.925-1.956 1.874V12h3.328l-.532 3.469h-2.796v8.385C19.612 22.954 24 17.99 24 12" mask="url(#b)"/>
        </g>
        <path fill="#FFF" d="M17.203 12h-3.328V9.749c0-.949.465-1.874 1.956-1.874h1.513V4.922s-1.374-.234-2.686-.234c-2.741 0-4.533 1.66-4.533 4.668V12H7.078v3.469h3.047V24h3.75v-8.531h2.796L17.203 12z"/>
    </g>
</svg>
