<svg xmlns="http://www.w3.org/2000/svg" xmlns:xlink="http://www.w3.org/1999/xlink" width="24" height="24" viewBox="0 0 24 24">
    <defs>
        <path id="prefix__a" d="M9 6.222c-1.491 0-2.7 1.194-2.7 2.667 0 1.473 1.209 2.667 2.7 2.667s2.7-1.194 2.7-2.667c0-1.473-1.209-2.667-2.7-2.667zm7.2-4.444h-2.853l-1.116-1.2A1.802 1.802 0 0010.908 0H7.092c-.504 0-.99.213-1.332.578l-1.107 1.2H1.8c-.99 0-1.8.8-1.8 1.778v10.666C0 15.2.81 16 1.8 16h14.4c.99 0 1.8-.8 1.8-1.778V3.556c0-.978-.81-1.778-1.8-1.778zM9 13.333c-2.484 0-4.5-1.99-4.5-4.444 0-2.453 2.016-4.445 4.5-4.445s4.5 1.992 4.5 4.445c0 2.453-2.016 4.444-4.5 4.444z"/>
    </defs>
    <g fill="none" fill-rule="evenodd" transform="translate(3 4)">
        <use fill="#000" fill-opacity=".38" fill-rule="nonzero" xlink:href="#prefix__a"/>
    </g>
</svg>
