<svg xmlns="http://www.w3.org/2000/svg" width="24" height="24" viewBox="0 0 24 24">
    <g fill="#000" fill-rule="nonzero" opacity=".54">
        <path d="M13.083 19.144c2.389-1.383 3.89-2.914 4.503-4.594.498-1.363.334-2.487-1.278-2.668a3.936 3.936 0 0 1-3.484-3.913A3.935 3.935 0 0 1 15.7 4.177c3.48-.956 6.22 2.172 6.28 5.587.077 4.758-2.512 8.336-7.531 10.746l-1.366-1.366zM2.259 19.144c2.39-1.383 3.89-2.914 4.503-4.594.498-1.363.335-2.487-1.278-2.668a3.935 3.935 0 0 1-.607-7.703c3.48-.956 6.222 2.172 6.279 5.587.082 4.758-2.51 8.336-7.527 10.746l-1.37-1.368z"/>
    </g>
</svg>
